<svg xmlns="http://www.w3.org/2000/svg" xmlns:xlink="http://www.w3.org/1999/xlink" width="550px" height="627px" viewBox="0 0 550 627"><title>75108695-7878-474E-A2E3-AD96442B7B73@1.5x</title><desc>Created with sketchtool.</desc><defs><polygon id="path-1" points="0.00673455268 0.53489719 209.645783 0.53489719 209.645783 147 0.00673455268 147"></polygon></defs><g id="06-Contact-Us-&#x2705;" stroke="none" stroke-width="1" fill="none" fill-rule="evenodd"><g id="6.0-Contact-Us" transform="translate(-160.000000, -150.000000)"><g id="Group-145" transform="translate(160.000000, 150.000000)"><path d="M550,311.500544 C550,321.165251 542.165008,329 532.5,329 C522.834992,329 515,321.165251 515,311.500544 C515,301.834749 522.834992,294 532.5,294 C542.165008,294 550,301.834749 550,311.500544" id="Fill-1" fill="#E9E9E9"></path><path d="M52,411.662826 C52,426.022736 40.3591277,437.663366 26,437.663366 C11.6397923,437.663366 0,426.022736 0,411.662826 C0,397.303997 11.6397923,385.663366 26,385.663366 C40.3591277,385.663366 52,397.303997 52,411.662826" id="Fill-6" fill="#E9E9E9"></path><path d="M168.303647,20.98124 C168.303647,32.0900821 159.298753,41.0949769 148.190989,41.0949769 C137.082147,41.0949769 128.078332,32.0900821 128.078332,20.98124 C128.078332,9.87347686 137.082147,0.868582126 148.190989,0.868582126 C159.298753,0.868582126 168.303647,9.87347686 168.303647,20.98124" id="Fill-3" fill="#E9E9E9"></path><path d="M166.909734,216.408149 C184.633926,234.081772 213.372999,234.081772 231.098282,216.408149 L241.932037,205.605971 C246.022654,201.527275 246.022654,194.914762 241.932037,190.836066 L204.95499,153.96679 C200.864372,149.888094 194.233621,149.888094 190.143003,153.96679 L171.653934,172.401972 C170.207106,173.843495 167.863375,173.843495 166.417638,172.401972 L121.575781,127.690808 C120.148593,126.267779 120.148593,123.960254 121.575781,122.538313 L139.807345,104.359885 C143.897963,100.28119 143.897963,93.6675886 139.807345,89.5888929 L101.829739,51.7219737 C97.7893123,47.6944113 91.2567626,47.6367504 87.1465045,51.5946844 L76.8594025,61.5014869 C58.6038337,79.0782825 58.3496022,108.165507 76.2942011,126.056718 L166.909734,216.408149 Z" id="Fill-8" fill="#CACFD3"></path><path d="M76.2942011,126.056718 L166.909734,216.408149 C184.633926,234.081772 213.372999,234.081772 231.098282,216.408149 L241.932037,205.605971 C246.022654,201.527275 246.022654,194.914762 241.932037,190.836066 L204.95499,153.96679 C200.864372,149.888094 194.233621,149.888094 190.143003,153.96679 L171.653934,172.401972 C170.207106,173.843495 167.863375,173.843495 166.417638,172.401972 L121.575781,127.690808 C120.148593,126.267779 120.148593,123.960254 121.575781,122.538313 L139.807345,104.359885 C143.897963,100.28119 143.897963,93.6675886 139.807345,89.5888929 L101.829739,51.7219737 C97.7893123,47.6944113 91.2567626,47.6367504 87.1465045,51.5946844 L76.8594025,61.5014869 C58.6038337,79.0782825 58.3496022,108.165507 76.2942011,126.056718 Z" id="Stroke-10" stroke="#681456" stroke-width="1.5"></path><path d="M79.2711695,63.2259327 L130.176128,113.663366 L131.921504,111.934021 L139.932776,103.996327 C144.022408,99.9442547 144.022408,93.3749046 139.932776,89.3228326 L101.965411,51.7020086 C97.9259579,47.7007362 91.3938912,47.6434516 87.2857143,51.5755503 L77,61.4176861 L79.2711695,63.2259327 Z" id="Fill-12" fill="#F6F7FA"></path><path d="M78.4277729,62.157882 L80.0539227,63.4600689 L130.380587,113.408624 L139.568169,104.290068 C141.392816,102.478048 142.39839,100.068515 142.39839,97.5052741 C142.39839,94.9441983 141.392816,92.533583 139.568169,90.7226448 L101.607224,53.0458212 C97.9012165,49.3687398 91.8230591,49.3178647 88.0559757,52.9299991 L78.4277729,62.157882 Z M130.380587,115.663366 L78.9491006,64.6172075 L76,62.2682919 L86.9413378,51.78152 C91.3344507,47.5718735 98.4236349,47.6314082 102.742584,51.9189911 L140.703529,89.5947323 C145.098824,93.9570043 145.098824,101.056791 140.703529,105.417981 L130.380587,115.663366 Z" id="Fill-14" fill="#681456"></path><path d="M183.272223,165.226912 L234.175249,215.663366 L235.921687,213.934018 L243.932826,205.996307 C248.022391,201.944227 248.022391,195.374864 243.932826,191.322784 L205.964998,153.702965 C201.926703,149.700604 195.394744,149.643319 191.286635,153.575426 L181,163.417581 L183.272223,165.226912 Z" id="Fill-16" fill="#F6F7FA"></path><path d="M181.427598,163.157241 L183.05254,164.459444 L233.375571,214.408597 L242.563582,205.289932 C244.388097,203.47789 245.392507,201.068328 245.392507,198.506139 C245.392507,195.942868 244.388097,193.533306 242.563582,191.723429 L204.604285,154.045071 C200.899636,150.370111 194.821917,150.31707 191.054015,153.929248 L181.427598,163.157241 Z M233.375571,216.663366 L181.947797,165.616596 L179,163.267653 L189.939458,152.780755 C194.333344,148.571058 201.422017,148.632759 205.740654,152.918228 L243.69886,190.595503 C245.827643,192.70847 247,195.518542 247,198.506139 C247,201.494818 245.827643,204.304891 243.69886,206.417858 L233.375571,216.663366 Z" id="Fill-18" fill="#681456"></path><line x1="83" y1="57.6633663" x2="114" y2="88.6633663" id="Fill-20" fill="#ECF1F7"></line><path d="M114.186759,89.6633663 C113.980414,89.6633663 113.770759,89.5839201 113.611862,89.4250275 L82.2375172,58.0514695 C81.9208276,57.7336843 81.9208276,57.2194903 82.2375172,56.9017052 C82.5553103,56.5839201 83.0695172,56.5839201 83.3873103,56.9017052 L114.761655,88.2752632 C115.079448,88.5930484 115.079448,89.1083458 114.761655,89.4250275 C114.602759,89.5839201 114.394207,89.6633663 114.186759,89.6633663" id="Fill-22" fill="#681456"></path><line x1="207" y1="180.663366" x2="238" y2="211.663366" id="Fill-24" fill="#ECF1F7"></line><path d="M238.186786,212.663366 C237.979344,212.663366 237.7708,212.585023 237.611908,212.425025 L206.237509,181.051205 C205.92083,180.733417 205.92083,180.219219 206.237509,179.902535 C206.555292,179.583644 207.069481,179.583644 207.387264,179.902535 L238.761663,211.276355 C239.079446,211.593039 239.079446,212.108341 238.761663,212.425025 C238.602772,212.585023 238.394227,212.663366 238.186786,212.663366" id="Fill-26" fill="#681456"></path><path d="M400.376685,461.385387 L276.830927,443.160451 C262.860892,441.100288 253.211981,428.134531 255.278748,414.201782 L299.587175,115.436821 C301.652851,101.505159 314.653305,91.8809131 328.62225,93.9410761 L452.168007,112.166013 C466.138042,114.227263 475.788044,127.191932 473.721277,141.123594 L429.41176,439.889643 C427.346083,453.822392 414.34672,463.446638 400.376685,461.385387" id="Fill-28" fill="#CACFD3"></path><path d="M400.376685,461.385387 L276.830927,443.160451 C262.860892,441.100288 253.211981,428.134531 255.278748,414.201782 L299.587175,115.436821 C301.652851,101.505159 314.653305,91.8809131 328.62225,93.9410761 L452.168007,112.166013 C466.138042,114.227263 475.788044,127.191932 473.721277,141.123594 L429.41176,439.889643 C427.346083,453.822392 414.34672,463.446638 400.376685,461.385387 Z" id="Stroke-30" stroke="#681456" stroke-width="2"></path><polygon id="Fill-32" fill="#FFFFFF" points="420.207127 426.663366 267 404.018602 308.793962 121.663366 462 144.30813"></polygon><polygon id="Fill-34" fill="#D196C2" points="458.870652 165.663366 306 142.931763 309.129348 121.663366 462 144.394969"></polygon><path d="M340.979305,424.33442 C339.206037,424.33442 337.486142,424.900834 336.036377,425.977021 C334.248949,427.302648 333.086741,429.244796 332.76215,431.445097 C332.435381,433.646488 332.986531,435.842432 334.312125,437.628815 C335.639897,439.416288 337.580906,440.578526 339.781151,440.904214 C344.330867,441.579555 348.569063,438.426152 349.238939,433.883946 C349.56353,431.683645 349.012379,429.486611 347.686786,427.702406 C346.361192,425.914934 344.419094,424.752695 342.218849,424.425918 C341.804941,424.364919 341.391034,424.33442 340.979305,424.33442 M341.005446,442.663366 C340.520739,442.663366 340.030585,442.62851 339.537163,442.55553 C336.89578,442.164486 334.562648,440.769146 332.971282,438.625487 C331.379916,436.478559 330.718753,433.843643 331.109787,431.201103 C331.500821,428.559652 332.897214,426.227551 335.041909,424.636145 C337.185515,423.044738 339.82581,422.378112 342.462837,422.775692 C345.10422,423.165646 347.436263,424.560986 349.028718,426.705735 C350.620084,428.850484 351.281247,431.4854 350.890213,434.12794 C350.157161,439.088421 345.877574,442.663366 341.005446,442.663366" id="Fill-36" fill="#FFFFFF"></path><path d="M362.996948,114.222249 C362.69006,114.222249 362.391302,114.320805 362.140305,114.506741 C361.832401,114.736366 361.63018,115.072676 361.57429,115.453691 C361.517383,115.833691 361.612905,116.21369 361.842562,116.523583 C362.07222,116.831444 362.408577,117.033636 362.789646,117.089518 C363.17478,117.147432 363.549753,117.049892 363.859689,116.821283 C364.168609,116.591658 364.37083,116.256364 364.425704,115.876365 C364.48261,115.494333 364.387089,115.114333 364.157431,114.805457 C363.927773,114.495564 363.592432,114.294388 363.211363,114.238506 C363.14023,114.228345 363.067065,114.222249 362.996948,114.222249 M363.003045,118.663366 C362.856715,118.663366 362.709368,118.65219 362.561005,118.630853 C361.768381,118.514008 361.070262,118.094383 360.592655,117.452245 C360.114032,116.808075 359.915876,116.017594 360.032738,115.225082 C360.149599,114.43257 360.569283,113.734549 361.212528,113.255994 C361.854757,112.777438 362.641284,112.576262 363.440005,112.698187 C364.230596,112.814016 364.930747,113.232625 365.408354,113.876795 C365.885961,114.519949 366.084117,115.309413 365.967256,116.102942 L365.967256,116.103958 C365.746744,117.590427 364.463302,118.663366 363.003045,118.663366" id="Fill-38" fill="#FFFFFF"></path><path d="M374.248888,115.30293 C373.488193,115.30293 372.818869,115.846751 372.70548,116.600393 C372.643832,117.001836 372.747313,117.402208 372.995007,117.727645 C373.244903,118.053081 373.609288,118.266113 374.022111,118.324992 L413.522132,124.00621 C414.371998,124.131461 415.170122,123.554453 415.29452,122.725875 C415.356168,122.325503 415.252687,121.92406 415.003892,121.598624 C414.755097,121.272117 414.390712,121.060155 413.977889,121.000207 L374.477868,115.320058 C374.401908,115.309353 374.324848,115.30293 374.248888,115.30293 M413.757717,125.663366 C413.59589,125.663366 413.436265,125.652661 413.274438,125.62911 L373.774417,119.947891 C372.915745,119.824782 372.159453,119.38373 371.640947,118.706095 C371.123542,118.028459 370.908874,117.195599 371.035473,116.359527 C371.162072,115.525597 371.615627,114.789083 372.312473,114.285941 C373.010419,113.781729 373.870192,113.576191 374.725562,113.697159 L414.224482,119.378377 C415.084255,119.501487 415.840547,119.942538 416.359053,120.620174 C416.876458,121.29888 417.091126,122.130669 416.964527,122.965671 C416.837928,123.799601 416.382171,124.537185 415.687527,125.040327 C415.120584,125.449263 414.450159,125.663366 413.757717,125.663366" id="Fill-40" fill="#FFFFFF"></path><path d="M421.288149,339.621186 L314.730021,323.698258 C312.994384,323.439312 311.380394,324.649552 311.122981,326.402917 L307.034784,354.329486 C306.777371,356.082851 307.976459,357.713328 309.71101,357.97337 L400.813496,371.585542 L410.198753,384.663366 L411.87248,373.237963 L416.270224,373.895201 C418.005861,374.155243 419.619852,372.943907 419.876179,371.190541 L423.965462,343.263973 C424.221788,341.511704 423.023786,339.879034 421.288149,339.621186" id="Fill-42" fill="#D196C2"></path><path d="M438.288149,224.621186 L331.730021,208.698258 C329.994384,208.439312 328.380394,209.649552 328.122981,211.402917 L324.034784,239.329486 C323.777371,241.082851 324.976459,242.713328 326.71101,242.97337 L417.813496,256.585542 L427.198753,269.663366 L428.871394,258.23906 L433.270224,258.895201 C435.005861,259.155243 436.619852,257.943907 436.876179,256.190541 L440.965462,228.263973 C441.221788,226.511704 440.023786,224.880131 438.288149,224.621186" id="Fill-44" fill="#D196C2"></path><path d="M302.728785,260.698074 L409.288965,276.535766 C411.023532,276.793342 412.222631,278.415202 411.965216,280.159302 L407.876982,307.939383 C407.619567,309.682392 406.005562,310.886235 404.269909,310.628659 L313.166597,297.08842 L300.437028,306.808666 L302.109685,295.444732 L297.710815,294.790967 C295.975162,294.53339 294.778235,292.91153 295.034564,291.167431 L299.123884,263.387349 C299.380213,261.644341 300.994218,260.440497 302.728785,260.698074" id="Fill-46" fill="#E1E1E1"></path><polygon id="Fill-48" fill="#FFFFFF" points="420.155884 426.663366 267 403.843432 270.845205 377.663366 424 400.484398"></polygon><path d="M293.896564,394.55364 C293.12925,399.742738 288.299942,403.327246 283.10974,402.559931 C277.919539,401.792615 274.336146,396.9633 275.103461,391.773092 C275.870775,386.583995 280.700083,382.999486 285.890285,383.766802 C291.079375,384.535228 294.663879,389.363432 293.896564,394.55364" id="Fill-50" fill="#D196C2"></path><path d="M405.710773,417.937629 C409.336785,418.459664 412.720772,415.979995 413.257152,412.394775 C413.515529,410.658252 413.076178,408.926043 412.018682,407.516331 C410.960096,406.10554 409.412009,405.187664 407.655693,404.932039 L308.289226,390.389464 C304.662123,389.867428 301.281407,392.343862 300.743937,395.931239 C300.484469,397.667762 300.92382,399.399971 301.982407,400.81184 C303.038812,402.221552 304.58908,403.139429 306.344305,403.396132 L405.710773,417.937629 Z M406.687594,419.663366 C406.284219,419.663366 405.876484,419.633166 405.465477,419.572765 L306.1001,405.03019 C303.903343,404.710929 301.963873,403.562235 300.639278,401.796589 C299.315772,400.032023 298.766311,397.861908 299.091191,395.688557 C299.761665,391.203796 304.003641,388.079133 308.533431,388.755406 L407.900989,403.296903 C412.436229,403.959154 415.580372,408.148382 414.909898,412.637457 C414.299385,416.718827 410.739875,419.663366 406.687594,419.663366 L406.687594,419.663366 Z" id="Fill-52" fill="#AF9CDA"></path><path d="M318.495776,131.451863 C318.132005,131.451863 317.777562,131.568451 317.48025,131.788803 C317.111816,132.06162 316.8728,132.461519 316.806342,132.913882 C316.738718,133.366245 316.85298,133.817442 317.125807,134.184696 C317.398635,134.55195 317.796217,134.78979 318.249764,134.857411 C319.175513,134.997317 320.05579,134.349086 320.194536,133.415212 C320.26216,132.962849 320.147899,132.510486 319.875071,132.144398 C319.602244,131.775978 319.203495,131.538138 318.751114,131.471683 C318.666001,131.458858 318.579723,131.451863 318.495776,131.451863 M318.501605,136.663366 C318.332545,136.663366 318.161154,136.650542 317.98743,136.624892 C316.079968,136.343914 314.756637,134.561277 315.037626,132.651558 C315.175206,131.727011 315.663731,130.910892 316.41459,130.354765 C317.165449,129.796307 318.0877,129.56313 319.012283,129.703036 C320.920911,129.984014 322.244242,131.766651 321.962087,133.67637 C321.704416,135.411206 320.206195,136.663366 318.501605,136.663366" id="Fill-54" fill="#FFFFFF"></path><path d="M327.499556,132.450049 C326.664751,132.450049 325.931381,133.061185 325.806627,133.912577 C325.739003,134.365098 325.852098,134.815286 326.124925,135.183833 C326.398919,135.550049 326.796501,135.787972 327.248881,135.855617 C327.701262,135.924428 328.154808,135.811298 328.52091,135.537219 C328.887011,135.265474 329.126027,134.865436 329.192485,134.414082 C329.260109,133.960395 329.147014,133.507875 328.875352,133.141659 C328.602525,132.773112 328.203777,132.535189 327.750231,132.46871 C327.66745,132.455881 327.582337,132.450049 327.499556,132.450049 M327.507717,137.663366 C327.33516,137.663366 327.161436,137.650537 326.988879,137.624879 C325.079087,137.342637 323.755758,135.560545 324.037912,133.650162 C324.320067,131.742111 326.105105,130.42537 328.011399,130.699448 C328.93598,130.835904 329.753297,131.324579 330.309445,132.076837 C330.867925,132.826761 331.098779,133.749297 330.961199,134.675331 C330.824785,135.599033 330.336261,136.415436 329.585403,136.974089 C328.976788,137.425443 328.252746,137.663366 327.507717,137.663366" id="Fill-56" fill="#FFFFFF"></path><path d="M336.496077,134.448399 C336.132308,134.448399 335.777866,134.566206 335.479389,134.787821 C335.112123,135.059592 334.873108,135.4585 334.80665,135.912229 C334.739026,136.364792 334.853287,136.815022 335.124948,137.183604 C335.397774,137.551019 335.796521,137.790131 336.248901,137.857782 C337.17931,137.988418 338.05492,137.346899 338.193665,136.413781 C338.331244,135.479496 337.684156,134.60703 336.750249,134.468228 C336.666302,134.456564 336.580024,134.448399 336.496077,134.448399 M336.501906,139.663366 C336.331681,139.663366 336.16029,139.651702 335.986567,139.626042 C334.077946,139.34144 332.755786,137.559184 333.03794,135.64979 C333.32126,133.742728 335.105127,132.423532 337.011416,132.699968 C338.920037,132.983403 340.243363,134.76566 339.962375,136.675054 C339.704705,138.410655 338.20649,139.663366 336.501906,139.663366" id="Fill-58" fill="#FFFFFF"></path><path d="M402.169076,346.663366 C402.128946,346.663366 402.088817,346.660064 402.046518,346.653458 L326.710536,335.34303 C326.256097,335.274776 325.942653,334.847635 326.008813,334.386367 C326.076057,333.923998 326.492535,333.595936 326.953482,333.675199 L402.289464,344.985627 C402.743903,345.052781 403.057347,345.482123 402.991187,345.943392 C402.929366,346.361726 402.574709,346.663366 402.169076,346.663366" id="Fill-60" fill="#FFFFFF"></path><path d="M357.162397,348.663366 C357.121944,348.663366 357.080398,348.660319 357.038851,348.654224 L324.714599,344.211823 C324.257588,344.149855 323.940523,343.753666 324.009402,343.328016 C324.076095,342.904398 324.493747,342.605732 324.960598,342.67278 L357.283757,347.11518 C357.740768,347.177148 358.057833,347.573338 357.99114,347.998987 C357.92882,348.385018 357.571302,348.663366 357.162397,348.663366" id="Fill-62" fill="#FFFFFF"></path><path d="M346.174589,355.663366 C346.134737,355.663366 346.094886,355.660107 346.053957,355.653588 L323.70478,352.319193 C323.254565,352.251831 322.942215,351.830278 323.008994,351.375045 C323.075772,350.920898 323.500137,350.60256 323.946044,350.673181 L346.294144,354.007577 C346.745435,354.073852 347.057785,354.497577 346.991007,354.952811 C346.929614,355.365672 346.577413,355.663366 346.174589,355.663366" id="Fill-64" fill="#FFFFFF"></path><path d="M401.164076,355.663366 C401.123717,355.663366 401.083358,355.659896 401.041908,355.652954 L367.712938,350.427105 C367.256989,350.355375 366.940661,349.90533 367.009381,349.420576 C367.075919,348.938137 367.495871,348.596843 367.958365,348.674357 L401.286244,353.901363 C401.742193,353.971936 402.05852,354.421981 401.990892,354.906735 C401.929808,355.347525 401.573121,355.663366 401.164076,355.663366" id="Fill-66" fill="#FFFFFF"></path><path d="M392.169922,283.663366 C392.128708,283.663366 392.088579,283.660064 392.047365,283.653458 L316.70969,272.34254 C316.256339,272.275384 315.941813,271.847123 316.009056,271.385835 C316.0763,270.924547 316.49386,270.597572 316.952635,270.674636 L392.29031,281.985554 C392.743661,282.052711 393.058187,282.482072 392.990944,282.94336 C392.930208,283.361712 392.574468,283.663366 392.169922,283.663366" id="Fill-68" fill="#FFFFFF"></path><path d="M348.162128,285.663366 C348.121675,285.663366 348.081222,285.660318 348.039675,285.65422 L315.715444,281.210059 C315.257339,281.148067 314.941368,280.752737 315.009154,280.325902 C315.07694,279.902116 315.503338,279.610446 315.961442,279.671423 L348.284581,284.114567 C348.741592,284.176559 349.058657,284.572906 348.990871,284.998724 C348.929644,285.384908 348.572126,285.663366 348.162128,285.663366" id="Fill-70" fill="#FFFFFF"></path><path d="M381.165304,299.663366 C381.122804,299.663366 381.079214,299.660043 381.036714,299.653397 L315.708285,289.350167 C315.251679,289.279271 314.94001,288.845031 315.009754,288.38199 C315.080588,287.918948 315.50995,287.603238 315.963286,287.673026 L381.291715,297.976256 C381.748321,298.047152 382.05999,298.4825 381.990246,298.944433 C381.924861,299.363165 381.569602,299.663366 381.165304,299.663366" id="Fill-72" fill="#FFFFFF"></path><path d="M391.164315,292.663366 C391.123956,292.663366 391.082506,292.659897 391.041055,292.652957 L357.712943,287.42632 C357.256991,287.354611 356.940661,286.904697 357.009381,286.420085 C357.075919,285.937787 357.496965,285.597749 357.958371,285.674084 L391.285393,290.901877 C391.742436,290.971273 392.057675,291.422344 391.991137,291.906955 C391.928962,292.347617 391.572272,292.663366 391.164315,292.663366" id="Fill-74" fill="#FFFFFF"></path><path d="M316.729548,156.698072 L423.287899,172.53651 C425.023539,172.794081 426.22263,174.415906 425.965217,176.159968 L421.877012,203.938352 C421.619598,205.682414 420.005604,206.886231 418.269963,206.62866 L327.167287,193.087625 L314.436721,202.80875 L316.109366,191.443973 L311.711613,190.790222 C309.975972,190.532651 308.779053,188.910827 309.034294,187.166765 L313.124672,159.38838 C313.379913,157.644319 314.994993,156.440501 316.729548,156.698072" id="Fill-76" fill="#E1E1E1"></path><path d="M406.169088,179.663366 C406.128959,179.663366 406.08883,179.660063 406.046532,179.653456 L330.710526,168.341737 C330.256093,168.272367 329.942654,167.844034 330.008813,167.382668 C330.076056,166.922404 330.491444,166.608587 330.953468,166.67135 L406.289474,177.985272 C406.743907,178.05244 407.057346,178.481874 406.991187,178.943239 C406.929367,179.361662 406.574715,179.663366 406.169088,179.663366" id="Fill-78" fill="#FFFFFF"></path><path d="M362.162374,181.663366 C362.121921,181.663366 362.080374,181.660318 362.038828,181.654222 L329.714599,177.212166 C329.257588,177.149173 328.940523,176.753939 329.009402,176.327209 C329.076095,175.902511 329.5014,175.60888 329.960597,175.671874 L362.283733,180.114946 C362.741837,180.176923 363.057809,180.573173 362.991116,180.998887 C362.928797,181.384976 362.571278,181.663366 362.162374,181.663366" id="Fill-80" fill="#FFFFFF"></path><path d="M395.165042,195.663366 C395.123631,195.663366 395.080041,195.660043 395.036451,195.653397 L329.707456,185.350259 C329.251935,185.278256 328.939174,184.84402 329.010008,184.380982 C329.079753,183.917945 329.513478,183.606668 329.963549,183.672025 L395.292544,193.975163 C395.748065,194.047166 396.060826,194.481402 395.989992,194.94444 C395.925696,195.363167 395.570434,195.663366 395.165042,195.663366" id="Fill-82" fill="#FFFFFF"></path><path d="M405.165161,188.663366 C405.123711,188.663366 405.083351,188.65874 405.041901,188.652958 L371.713786,183.426871 C371.256743,183.35517 370.941504,182.905303 371.009133,182.420743 C371.075671,181.936182 371.494536,181.603118 371.959214,181.672507 L405.286239,186.89975 C405.742191,186.971451 406.058521,187.422474 405.990892,187.907035 C405.929807,188.346494 405.573118,188.663366 405.165161,188.663366" id="Fill-84" fill="#FFFFFF"></path><path d="M419.168838,232.663366 C419.128709,232.663366 419.08858,232.660063 419.047366,232.653458 L343.70969,221.34222 C343.256339,221.273961 342.941813,220.845689 343.009056,220.384387 C343.0763,219.923086 343.490607,219.60601 343.952635,219.672068 L419.289226,230.984406 C419.743662,231.052666 420.058188,231.482039 419.990944,231.94334 C419.929124,232.361704 419.574469,232.663366 419.168838,232.663366" id="Fill-86" fill="#FFFFFF"></path><path d="M374.162374,234.663366 C374.121921,234.663366 374.080374,234.660319 374.038828,234.654225 L341.714599,230.21242 C341.257588,230.149445 340.940523,229.754324 341.009402,229.327716 C341.076095,228.903139 341.506866,228.606545 341.960597,228.672567 L374.283733,233.114372 C374.741837,233.177348 375.057809,233.573484 374.991116,233.999076 C374.928797,234.385055 374.571278,234.663366 374.162374,234.663366" id="Fill-88" fill="#FFFFFF"></path><path d="M363.175665,242.663366 C363.134737,242.663366 363.094885,242.661193 363.053956,242.654674 L340.70478,239.320112 C340.254565,239.252747 339.942215,238.830087 340.008994,238.374831 C340.076849,237.920661 340.495829,237.603394 340.946044,237.672932 L363.29522,241.007494 C363.745435,241.073772 364.057785,241.497519 363.991006,241.952775 C363.93069,242.366744 363.577412,242.663366 363.175665,242.663366" id="Fill-90" fill="#FFFFFF"></path><path d="M418.165136,241.663366 C418.124777,241.663366 418.083327,241.659897 418.041877,241.654114 L384.713761,236.427941 C384.257809,236.355082 383.941479,235.905208 384.009108,235.421795 C384.075647,234.937227 384.495602,234.599532 384.95919,234.673547 L418.286214,239.900877 C418.743257,239.972579 419.058496,240.422454 418.990867,240.907023 C418.929783,241.347645 418.573093,241.663366 418.165136,241.663366" id="Fill-92" fill="#FFFFFF"></path><path d="M269.375307,606.042928 L87.2006002,626.622456 C83.7015938,627.018573 80.5454138,624.493464 80.1514355,620.985156 L67.0021368,503.969167 C66.9814584,503.784749 67.1131473,503.617791 67.2981647,503.597058 L261.434794,481.665494 C261.618723,481.644761 261.785239,481.777891 261.805917,481.962309 L274.959569,599.021947 C275.351371,602.507339 272.851459,605.650085 269.375307,606.042928" id="Fill-94" fill="#AD5E99"></path><g id="Group-98" transform="translate(66.000000, 479.663366)"><mask id="mask-2" fill="white"><use xlink:href="#path-1"></use></mask><g id="Clip-97"></g><path d="M1.83925515,24.1290156 L14.9179923,140.346127 C15.2562448,143.354727 17.9644407,145.540127 20.9836985,145.189504 L203.038631,124.65306 L203.138693,125.536149 L203.038631,124.65306 C204.483003,124.489727 205.778369,123.774327 206.684363,122.636438 C207.591446,121.499638 208.000394,120.075371 207.836162,118.629327 L194.754162,2.36974889 L1.83925515,24.1290156 Z M20.36375,147.000327 C16.7223686,147.000327 13.5725954,144.250882 13.1549459,140.544304 L0.0142139175,23.78166 C-0.0597448454,23.1098156 0.423162371,22.5033044 1.09205412,22.4270822 L195.102204,0.542593333 C195.781972,0.46746 196.377992,0.950926667 196.454126,1.62168222 L209.599209,118.431149 C209.815647,120.347593 209.27292,122.234638 208.07109,123.742749 C206.870348,125.25086 205.152982,126.20146 203.237668,126.418149 L21.1805593,146.954593 C20.9064768,146.986171 20.633482,147.000327 20.36375,147.000327 L20.36375,147.000327 Z" id="Fill-96" fill="#243762" mask="url(#mask-2)"></path></g><path d="M67.3339976,503.626214 L147.585886,423.909367 C152.370646,419.142878 159.786044,418.291641 165.517312,421.852849 L260.90462,481.356374 C261.066723,481.457998 261.011238,481.708233 260.820849,481.730088 L67,503.663366" id="Fill-101" fill="#8D3376"></path><path d="M158.049633,420.4503 C154.540951,420.4503 151.070313,421.816296 148.425759,424.458464 L70.0630311,502.561244 L258.8764,481.123756 L165.250691,422.522846 C163.017004,421.129464 160.523536,420.4503 158.049633,420.4503 L158.049633,420.4503 Z M67.3902158,504.663366 L67.2423903,503.34776 L67,503.101289 L67.1934775,502.909589 L67.1902166,502.887681 L67.2184774,502.884394 L147.179025,423.188865 C152.270308,418.102802 160.085494,417.202362 166.183296,421.00349 L261.486172,480.653819 C261.877475,480.899194 262.074214,481.369132 261.974214,481.822638 C261.874214,482.278336 261.498129,482.620108 261.039435,482.67488 L67.3902158,504.663366 Z" id="Fill-103" fill="#681456"></path><path d="M156.446656,540.291221 L96,624.663366 L261,606.014374 L183.355442,537.249768 C175.255771,530.075396 162.751972,531.489491 156.446656,540.291221" id="Fill-107" fill="#8D3376"></path><path d="M171.163598,533.446783 C170.519251,533.446783 169.872723,533.481779 169.227285,533.555054 C164.358156,534.10516 159.925133,536.710235 157.065364,540.702058 L97.7799533,623.442163 L258.821009,605.241636 L182.666998,537.807166 C179.48233,534.985548 175.373116,533.446783 171.163598,533.446783 L171.163598,533.446783 Z M94,625.663366 L155.621852,539.660903 L156.343608,540.180387 L155.621852,539.660903 C158.774902,535.261148 163.660385,532.389223 169.027766,531.783341 C174.395147,531.177458 179.794146,532.88574 183.844485,536.469632 L263,606.564953 L94,625.663366 Z" id="Fill-109" fill="#681456"></path><path d="M77,446.122608 L204.242743,431.774883 C212.583201,430.834389 220.005794,435.946483 220.821068,443.191893 L229,515.839334 L193.615807,548.3907 L146.858161,553.663366 L100.671317,524.751636 L92.7488637,454.367498 L77,446.122608 Z" id="Fill-111" fill="#FFFFFF"></path><path d="M101.688245,523.503292 L147.205208,551.834858 L193.324077,546.664033 L228.131038,514.825203 L220.011849,443.099939 C219.646562,439.87699 217.840844,437.003465 214.92836,435.008926 C211.976622,432.988343 208.249602,432.112612 204.430988,432.539083 L80.1875504,446.469385 L93.7675102,453.537084 L101.688245,523.503292 Z M146.788671,553.663366 L100.018828,524.550479 L92.1068165,454.67 L80,444.709243 L204.230353,430.780026 C208.474226,430.305808 212.630867,431.2868 215.935898,433.55046 C219.280184,435.84125 221.355234,439.161864 221.779403,442.903523 L230,515.520796 L194.100449,548.356895 L146.788671,553.663366 Z" id="Fill-113" fill="#681456"></path><path d="M156.446656,540.291221 L96,624.663366 L261,606.014374 L183.355442,537.249768 C175.255771,530.075396 162.751972,531.489491 156.446656,540.291221" id="Fill-117" fill="#AD5E99"></path><path d="M171.163598,533.446783 C170.519251,533.446783 169.872723,533.481779 169.227285,533.555054 C164.358156,534.10516 159.925133,536.710235 157.065364,540.702058 L97.7799533,623.442163 L258.821009,605.241636 L182.666998,537.807166 C179.48233,534.985548 175.373116,533.446783 171.163598,533.446783 L171.163598,533.446783 Z M94,625.663366 L155.621852,539.660903 L156.343608,540.180387 L155.621852,539.660903 C158.774902,535.261148 163.660385,532.389223 169.027766,531.783341 C174.395147,531.177458 179.794146,532.88574 183.844485,536.469632 L263,606.564953 L94,625.663366 Z" id="Fill-119" fill="#681456"></path><path d="M162.327552,559.217684 L118,620.663366 L239,607.08107 L182.060616,557.003132 C176.12045,551.779088 166.951672,552.80828 162.327552,559.217684" id="Fill-121" fill="#ECF1F7"></path><line x1="68" y1="503.663366" x2="147" y2="553.663366" id="Fill-123" fill="#681456"></line><polygon id="Fill-125" fill="#681456" points="146.064625 553.663366 67 504.17134 67.9353746 502.663366 147 552.155393"></polygon><line x1="262" y1="481.663366" x2="196" y2="547.663366" id="Fill-127" fill="#681456"></line><polygon id="Fill-129" fill="#681456" points="196.254923 547.663366 195 546.408148 261.742888 480.663366 263 481.917499"></polygon><path d="M97,486.142196 L74.6590377,488.663366 L71.0685848,456.731836 C70.4042961,450.831504 74.6403718,445.510866 80.5289343,444.846474 L81.5456803,444.732075 C87.4331447,444.066583 92.7452583,448.310334 93.408449,454.210665 L97,486.142196 Z" id="Fill-131" fill="#E1E1E1"></path><path d="M82.7148735,446.420213 C82.3411244,446.420213 81.9651703,446.441787 81.5892161,446.482779 L80.5682967,446.593889 C77.9487453,446.882989 75.5982051,448.151578 73.9543705,450.170966 C72.3094333,452.187117 71.5663451,454.71243 71.8618164,457.276578 L75.3666791,487.718411 L96.0132864,485.442286 L92.5073211,455.000452 C92.2118498,452.435226 90.9142017,450.137525 88.8503127,448.528056 C87.086305,447.150515 84.9408307,446.420213 82.7148735,446.420213 L82.7148735,446.420213 Z M73.7801747,489.663366 L70.0746561,457.471828 C69.7262646,454.440589 70.6049609,451.458973 72.5486768,449.072816 C74.4923928,446.688817 77.2696024,445.186143 80.3665383,444.845263 L81.3885603,444.734154 C84.4888038,444.400825 87.533922,445.250866 89.9715601,447.153751 C92.4091982,449.055556 93.9449874,451.772884 94.2944814,454.804122 L98,486.991346 L73.7801747,489.663366 Z" id="Fill-133" fill="#681456"></path><path d="M111.88967,469.663366 C111.443165,469.663366 111.056703,469.331883 111.005393,468.883088 C110.9519,468.402006 111.302336,467.968279 111.790325,467.91339 L204.01058,457.66968 C204.504028,457.611562 204.938525,457.961342 204.994201,458.444577 C205.049878,458.925659 204.698351,459.360462 204.209269,459.415351 L111.991198,469.657985 C111.957355,469.661214 111.922421,469.663366 111.88967,469.663366" id="Fill-135" fill="#681456"></path><path d="M114.890763,500.663366 C114.443165,500.663366 114.056703,500.331823 114.005393,499.882948 C113.951899,499.40178 114.302336,498.967975 114.791418,498.913076 L207.009683,488.669681 C207.494399,488.611553 207.938721,488.961396 207.994398,489.444717 C208.048983,489.925885 207.698547,490.35969 207.209464,490.414589 L114.9912,500.657984 C114.957357,500.661213 114.922423,500.663366 114.890763,500.663366" id="Fill-137" fill="#681456"></path><path d="M112.897533,485.663366 C112.447082,485.663366 112.057204,485.342652 112.005441,484.905978 C111.951475,484.439009 112.305008,484.018005 112.79731,483.964727 L153.000933,479.667985 C153.491033,479.61993 153.939281,479.952136 153.994349,480.42015 C154.049416,480.888163 153.695883,481.308122 153.202479,481.362445 L112.999958,485.658143 C112.965817,485.662322 112.930573,485.663366 112.897533,485.663366" id="Fill-139" fill="#681456"></path><path d="M162.895662,479.663366 C162.446247,479.663366 162.057268,479.35314 162.005624,478.932118 C161.950683,478.481886 162.304501,478.07698 162.79567,478.025611 L205.003248,473.667329 C205.497713,473.624018 205.938337,473.940288 205.994376,474.392534 C206.049317,474.843773 205.695499,475.248679 205.20433,475.300048 L162.996752,479.65833 C162.962689,479.661352 162.928626,479.663366 162.895662,479.663366" id="Fill-141" fill="#681456"></path><path d="M116.897744,518.663366 C116.447285,518.663366 116.057401,518.341588 116.005637,517.905934 C115.950568,517.438938 116.305209,517.01791 116.79752,516.964628 L157.001818,512.667636 C157.489724,512.621668 157.939081,512.951804 157.99415,513.4188 C158.050319,513.886841 157.695679,514.307869 157.203368,514.361151 L117.000171,518.658143 C116.966029,518.661277 116.930785,518.663366 116.897744,518.663366" id="Fill-143" fill="#681456"></path></g></g></g></svg>